<svg width="268" height="100" viewBox="0 0 268 100" fill="none" xmlns="http://www.w3.org/2000/svg">
<path d="M7 86.6295V10.6248C7 8.18622 9.17315 6.31386 11.5808 6.70138C50.6532 12.9903 68.5938 24.1225 69.9328 46.7292C71.3294 70.3081 50.9279 86.1074 11.3542 90.5626C9.0203 90.8253 7 88.9781 7 86.6295Z" stroke="#D0D3FF" stroke-width="13"/>
<path d="M90 92.5V14.5C90 12.567 91.567 11 93.5 11C95.433 11 97 12.567 97 14.5V92.5C97 94.433 95.433 96 93.5 96C91.567 96 90 94.433 90 92.5Z" stroke="#D0D3FF" stroke-width="7"/>
<path d="M151.838 41.7106C144.819 27.4092 121.582 27.6892 109 40.9993C108.488 41.5412 108.685 42.4158 109.366 42.7185C109.754 42.8909 110.211 42.8233 110.54 42.5548C125.685 30.1884 139.566 29.8603 151.402 42.0134C151.461 42.0744 151.547 42.1055 151.631 42.0949C151.814 42.0721 151.919 41.8754 151.838 41.7106Z" fill="#292524" stroke="#292524"/>
<mask id="path-4-inside-1_85_66" fill="white">
<path fill-rule="evenodd" clip-rule="evenodd" d="M133 96C145.15 96 155 84.8071 155 71C155 57.1929 145.15 46 133 46C120.85 46 111 57.1929 111 71C111 84.8071 120.85 96 133 96ZM144 76C148.418 76 152 73.0899 152 69.5C152 65.9101 148.418 63 144 63C139.582 63 136 65.9101 136 69.5C136 73.0899 139.582 76 144 76Z"/>
</mask>
<path fill-rule="evenodd" clip-rule="evenodd" d="M133 96C145.15 96 155 84.8071 155 71C155 57.1929 145.15 46 133 46C120.85 46 111 57.1929 111 71C111 84.8071 120.85 96 133 96ZM144 76C148.418 76 152 73.0899 152 69.5C152 65.9101 148.418 63 144 63C139.582 63 136 65.9101 136 69.5C136 73.0899 139.582 76 144 76Z" fill="white"/>
<path d="M152 71C152 83.5221 143.145 93 133 93V99C147.156 99 158 86.0921 158 71H152ZM133 49C143.145 49 152 58.4779 152 71H158C158 55.9079 147.156 43 133 43V49ZM114 71C114 58.4779 122.855 49 133 49V43C118.844 43 108 55.9079 108 71H114ZM133 93C122.855 93 114 83.5221 114 71H108C108 86.0921 118.844 99 133 99V93ZM149 69.5C149 70.8809 147.374 73 144 73V79C149.463 79 155 75.2988 155 69.5H149ZM144 66C147.374 66 149 68.1191 149 69.5H155C155 63.7012 149.463 60 144 60V66ZM139 69.5C139 68.1191 140.626 66 144 66V60C138.537 60 133 63.7012 133 69.5H139ZM144 73C140.626 73 139 70.8809 139 69.5H133C133 75.2988 138.537 79 144 79V73Z" fill="black" mask="url(#path-4-inside-1_85_66)"/>
<mask id="path-6-inside-2_85_66" fill="white">
<path fill-rule="evenodd" clip-rule="evenodd" d="M158.516 89.305C157.574 88.3089 157.605 86.7884 158.34 85.6317C160.958 81.5183 162.5 76.4638 162.5 71C162.5 65.5362 160.958 60.4817 158.34 56.3683C157.605 55.2116 157.574 53.6911 158.516 52.695C162.444 48.541 167.711 46 173.5 46C185.65 46 195.5 57.1929 195.5 71C195.5 84.8071 185.65 96 173.5 96C167.711 96 162.444 93.459 158.516 89.305ZM192.5 69.5C192.5 73.0899 188.918 76 184.5 76C180.082 76 176.5 73.0899 176.5 69.5C176.5 65.9101 180.082 63 184.5 63C188.918 63 192.5 65.9101 192.5 69.5Z"/>
</mask>
<path fill-rule="evenodd" clip-rule="evenodd" d="M158.516 89.305C157.574 88.3089 157.605 86.7884 158.34 85.6317C160.958 81.5183 162.5 76.4638 162.5 71C162.5 65.5362 160.958 60.4817 158.34 56.3683C157.605 55.2116 157.574 53.6911 158.516 52.695C162.444 48.541 167.711 46 173.5 46C185.65 46 195.5 57.1929 195.5 71C195.5 84.8071 185.65 96 173.5 96C167.711 96 162.444 93.459 158.516 89.305ZM192.5 69.5C192.5 73.0899 188.918 76 184.5 76C180.082 76 176.5 73.0899 176.5 69.5C176.5 65.9101 180.082 63 184.5 63C188.918 63 192.5 65.9101 192.5 69.5Z" fill="white"/>
<path d="M158.34 56.3683L155.809 57.9787L158.34 56.3683ZM158.516 89.305L156.336 91.3663L158.516 89.305ZM160.872 87.2421C163.798 82.6425 165.5 77.0285 165.5 71H159.5C159.5 75.8992 158.117 80.394 155.809 84.0213L160.872 87.2421ZM165.5 71C165.5 64.9715 163.798 59.3575 160.872 54.7579L155.809 57.9787C158.117 61.606 159.5 66.1008 159.5 71H165.5ZM173.5 43C166.796 43 160.766 45.9493 156.336 50.6337L160.696 54.7562C164.122 51.1326 168.626 49 173.5 49V43ZM198.5 71C198.5 55.9079 187.656 43 173.5 43V49C183.645 49 192.5 58.4779 192.5 71H198.5ZM173.5 99C187.656 99 198.5 86.0921 198.5 71H192.5C192.5 83.5221 183.645 93 173.5 93V99ZM156.336 91.3663C160.766 96.0507 166.796 99 173.5 99V93C168.626 93 164.122 90.8674 160.696 87.2438L156.336 91.3663ZM184.5 79C189.963 79 195.5 75.2988 195.5 69.5H189.5C189.5 70.8809 187.874 73 184.5 73V79ZM173.5 69.5C173.5 75.2988 179.037 79 184.5 79V73C181.126 73 179.5 70.8809 179.5 69.5H173.5ZM184.5 60C179.037 60 173.5 63.7012 173.5 69.5H179.5C179.5 68.1191 181.126 66 184.5 66V60ZM195.5 69.5C195.5 63.7012 189.963 60 184.5 60V66C187.874 66 189.5 68.1191 189.5 69.5H195.5ZM160.872 54.7579C160.842 54.7106 160.821 54.6633 160.81 54.6224C160.798 54.5813 160.798 54.5576 160.798 54.5551C160.798 54.5537 160.797 54.5792 160.78 54.6232C160.762 54.6702 160.732 54.7181 160.696 54.7562L156.336 50.6337C154.225 52.8665 154.527 55.9633 155.809 57.9787L160.872 54.7579ZM155.809 84.0213C154.527 86.0367 154.225 89.1335 156.336 91.3663L160.696 87.2438C160.732 87.2819 160.762 87.3298 160.78 87.3768C160.797 87.4208 160.798 87.4463 160.798 87.4449C160.798 87.4424 160.798 87.4187 160.81 87.3776C160.821 87.3367 160.842 87.2894 160.872 87.2421L155.809 84.0213Z" fill="black" mask="url(#path-6-inside-2_85_66)"/>
<path d="M259.618 94.3547L230.907 56.1981C229.578 54.4322 227.068 54.0785 225.303 55.4085L220.138 59.2998C219.135 60.0556 218.545 61.2386 218.545 62.4945V92.7273C218.545 93.9825 217.528 95 216.273 95C215.018 95 214 93.9825 214 92.7273V53V13.2727C214 12.0175 215.018 11 216.273 11C217.528 11 218.545 12.0175 218.545 13.2727V47.6462C218.545 50.8949 222.213 52.7885 224.862 50.9073L254.61 29.777C254.864 29.5968 255.167 29.5 255.478 29.5C256.932 29.5 257.535 31.361 256.358 32.2139L235.67 47.2029C233.909 48.4795 233.49 50.9301 234.728 52.7189L262.242 92.4606C262.985 93.5339 262.217 95 260.911 95C260.403 95 259.924 94.761 259.618 94.3547Z" fill="#D0D3FF" stroke="#D0D3FF" stroke-width="9"/>
</svg>
